<?xml version="1.0" encoding="utf-8"?>
<svg viewBox="180 72 180 72" xmlns="http://www.w3.org/2000/svg">
  <defs>
    <path id="C" d="M134.417 148.974l32.038-32.812-32.038-61.007c-3.042-5.8-10.433-6.398-13.443-.6l-17.705 34.1-.53 1.744z"/>
    <path id="D" d="M1.253 280.73l1.605-3.13L102.2 89.083 58.062 5.608c-3.67-6.892-12.987-5.135-14.2 2.58z"/>
  </defs>
  <path d="M 188 72 L 352 72 C 356.418 72 360 75.582 360 80 L 360 136 C 360 140.418 356.418 144 352 144 L 188 144 C 183.582 144 180 140.418 180 136 L 180 80 C 180 75.582 183.582 72 188 72 Z" style="fill: rgb(87, 123, 164);"/>
  <path d="M 228.809 116.301 C 228.809 116.301 227.089 117.301 230.033 117.639 C 233.599 118.046 235.421 117.988 239.351 117.244 C 239.351 117.244 240.384 117.892 241.827 118.453 C 233.018 122.229 221.89 118.234 228.809 116.301 M 227.733 111.374 C 227.733 111.374 225.804 112.802 228.749 113.107 C 232.559 113.5 235.567 113.532 240.772 112.529 C 240.772 112.529 241.492 113.259 242.624 113.658 C 231.973 116.773 220.11 113.904 227.733 111.374" style="fill: rgb(255, 255, 255);"/>
  <path d="M 236.807 103.017 C 238.978 105.516 236.237 107.765 236.237 107.765 C 236.237 107.765 241.748 104.92 239.217 101.357 C 236.853 98.034 235.04 96.383 244.855 90.691 C 244.855 90.691 229.449 94.539 236.807 103.017" style="fill: rgb(234, 112, 0);"/>
  <path d="M 248.458 119.945 C 248.458 119.945 249.731 120.994 247.057 121.805 C 241.972 123.345 225.893 123.81 221.427 121.866 C 219.821 121.168 222.832 120.198 223.779 119.995 C 224.767 119.781 225.331 119.821 225.331 119.821 C 223.546 118.563 213.79 122.29 220.376 123.358 C 238.337 126.271 253.117 122.047 248.458 119.945 M 229.636 106.269 C 229.636 106.269 221.457 108.212 226.74 108.917 C 228.97 109.216 233.416 109.149 237.558 108.802 C 240.942 108.516 244.341 107.909 244.341 107.909 C 244.341 107.909 243.148 108.42 242.284 109.01 C 233.979 111.194 217.935 110.178 222.554 107.944 C 226.46 106.055 229.636 106.269 229.636 106.269 M 244.307 114.47 C 252.75 110.083 248.847 105.867 246.122 106.435 C 245.454 106.574 245.156 106.695 245.156 106.695 C 245.156 106.695 245.404 106.306 245.878 106.138 C 251.268 104.243 255.413 111.727 244.138 114.692 C 244.138 114.692 244.269 114.575 244.307 114.47" style="fill: rgb(255, 255, 255);"/>
  <path d="M 239.217 81.5 C 239.217 81.5 243.893 86.177 234.783 93.37 C 227.477 99.139 233.117 102.429 234.78 106.187 C 230.515 102.34 227.386 98.953 229.485 95.8 C 232.567 91.173 241.104 88.93 239.217 81.5" style="fill: rgb(234, 112, 0);"/>
  <path d="M 230.466 126.359 C 238.569 126.877 251.014 126.071 251.309 122.236 C 251.309 122.236 250.742 123.69 244.611 124.844 C 237.694 126.146 229.163 125.994 224.103 125.16 C 224.104 125.16 225.139 126.017 230.466 126.359" style="fill: rgb(255, 255, 255);"/>
  <path d="M 283.245 116.971 C 281.863 118.17 280.401 118.844 279.09 118.844 C 277.22 118.844 276.208 117.721 276.208 115.922 C 276.208 113.974 277.291 112.551 281.638 112.551 L 283.245 112.551 L 283.245 116.971 M 287.064 121.277 L 287.064 107.946 C 287.064 104.541 285.12 102.294 280.438 102.294 C 277.704 102.294 275.309 102.969 273.363 103.829 L 273.925 106.189 C 275.457 105.626 277.44 105.103 279.388 105.103 C 282.085 105.103 283.245 106.189 283.245 108.435 L 283.245 110.12 L 281.9 110.12 C 275.345 110.12 272.389 112.665 272.389 116.483 C 272.389 119.779 274.337 121.653 278.006 121.653 C 280.364 121.653 282.124 120.679 283.769 119.254 L 284.069 121.277 L 287.064 121.277 Z M 299.801 121.277 L 295.04 121.277 L 289.311 102.631 L 293.47 102.631 L 297.024 114.088 L 297.815 117.533 C 299.613 112.551 300.886 107.497 301.521 102.631 L 305.566 102.631 C 304.482 108.77 302.532 115.511 299.801 121.277 M 318.065 116.971 C 316.678 118.17 315.214 118.844 313.903 118.844 C 312.036 118.844 311.022 117.721 311.022 115.922 C 311.022 113.974 312.107 112.551 316.452 112.551 L 318.065 112.551 L 318.065 116.971 M 321.88 121.277 L 321.88 107.946 C 321.88 104.541 319.933 102.294 315.256 102.294 C 312.521 102.294 310.124 102.969 308.179 103.829 L 308.74 106.189 C 310.273 105.626 312.261 105.103 314.206 105.103 C 316.901 105.103 318.065 106.189 318.065 108.435 L 318.065 110.12 L 316.715 110.12 C 310.159 110.12 307.203 112.665 307.203 116.483 C 307.203 119.779 309.15 121.653 312.819 121.653 C 315.179 121.653 316.939 120.679 318.587 119.254 L 318.886 121.277 L 321.88 121.277 Z M 268.204 124.443 C 267.115 126.032 265.358 127.289 263.433 128 L 261.549 125.782 C 263.014 125.031 264.269 123.817 264.853 122.687 C 265.358 121.681 265.566 120.385 265.566 117.288 L 265.566 96 L 269.622 96 L 269.622 116.996 C 269.622 121.139 269.291 122.812 268.204 124.443" fill="#e76f00"/>
</svg>
